<?xml version="1.0" standalone="no"?>
<!DOCTYPE svg PUBLIC "-//W3C//DTD SVG 20010904//EN"
 "http://www.w3.org/TR/2001/REC-SVG-20010904/DTD/svg10.dtd">
<svg version="1.0" xmlns="http://www.w3.org/2000/svg"
 width="275.000000pt" height="291.000000pt" viewBox="0 0 275.000000 291.000000"
 preserveAspectRatio="xMidYMid meet">
<metadata>
Created by potrace 1.15, written by Peter Selinger 2001-2017
</metadata>
<g transform="translate(0.000000,291.000000) scale(0.100000,-0.100000)"
fill="white" stroke="none">
<path d="M685 2811 c-37 -16 -50 -42 -55 -115 l-5 -71 -113 -6 c-103 -5 -118
-9 -186 -42 -89 -44 -146 -103 -189 -195 l-32 -67 0 -875 0 -875 32 -67 c44
-93 100 -151 191 -196 l76 -37 264 -3 c191 -3 272 0 294 9 31 13 58 54 58 89
0 29 -26 76 -47 86 -10 5 -135 11 -278 14 l-260 5 -38 27 c-22 14 -51 43 -65
65 l-27 38 -3 831 -2 831 28 54 c22 43 38 59 81 81 46 24 65 28 137 28 l84 0
0 -71 c0 -65 2 -73 29 -100 79 -78 187 8 167 133 l-6 38 231 0 231 0 -7 -39
c-8 -49 8 -112 36 -137 14 -13 36 -19 66 -19 37 0 49 5 69 28 20 24 24 39 24
98 l0 69 230 0 230 0 0 -60 c0 -34 6 -73 14 -89 35 -66 137 -66 172 0 8 16 14
56 14 90 l0 61 98 -4 c85 -3 102 -7 135 -30 51 -34 85 -86 93 -140 9 -66 24
-98 55 -113 35 -19 63 -19 98 0 64 32 66 138 6 261 -42 86 -102 144 -193 187
-59 27 -79 31 -179 35 l-113 5 0 59 c0 68 -18 109 -55 126 -33 15 -57 15 -90
0 -38 -17 -55 -58 -55 -128 l0 -60 -230 0 -230 0 0 69 c0 87 -22 119 -87 128
-37 5 -45 2 -73 -25 -28 -28 -30 -36 -30 -101 l0 -71 -230 0 -230 0 0 69 c0
58 -4 74 -22 96 -25 28 -79 41 -113 26z"/>
<path d="M1718 1959 c-351 -37 -634 -274 -733 -614 -84 -288 -9 -594 199 -813
204 -215 493 -310 777 -256 108 20 231 68 275 106 28 25 34 37 34 72 0 52 -20
81 -65 96 -30 10 -42 8 -112 -23 -115 -51 -218 -71 -322 -64 -169 11 -310 75
-427 191 -200 200 -248 487 -125 741 48 100 104 171 184 231 121 91 246 134
392 135 178 1 324 -56 453 -176 l75 -70 -102 -5 c-97 -5 -104 -6 -127 -33 -33
-38 -33 -96 0 -134 l24 -28 159 0 c153 0 160 1 215 28 64 32 111 80 142 146
17 38 21 70 24 189 4 160 -3 194 -49 217 -35 19 -63 19 -98 1 -39 -21 -51 -56
-51 -154 l-1 -87 -19 26 c-29 38 -145 131 -215 172 -146 84 -336 124 -507 106z"/>
<path d="M1783 1512 c-29 -4 -70 -46 -76 -79 -3 -14 -2 -80 0 -147 l6 -122
-72 -58 c-83 -68 -91 -80 -91 -134 0 -74 88 -117 151 -74 14 9 62 48 107 86
60 51 84 78 91 104 6 20 7 106 4 203 -6 161 -7 171 -30 193 -25 25 -53 34 -90
28z"/>
<path d="M2489 1131 c-21 -22 -29 -39 -29 -66 0 -112 175 -131 196 -21 7 38
-15 89 -45 106 -39 20 -91 12 -122 -19z"/>
<path d="M2368 767 c-55 -51 -40 -135 29 -163 68 -29 133 16 133 91 0 81 -103
126 -162 72z"/>
</g>
</svg>
