<?xml version="1.0"?>
<svg xmlns="http://www.w3.org/2000/svg" height="512px" viewBox="0 0 512.00089 512" width="512px"><path d="m320.757812 254.65625 112.464844-117.234375c16.273438.339844 32.171875-5.929687 43.792969-17.550781l17.402344-17.402344c11.339843-11.335938 17.582031-26.410156 17.582031-42.445312 0-16.03125-6.242188-31.105469-17.582031-42.441407-11.335938-11.335937-26.410157-17.582031-42.441407-17.582031-16.035156 0-31.105468 6.246094-42.445312 17.582031l-17.402344 17.402344c-11.621094 11.621094-17.898437 27.539063-17.550781 43.792969l-118.578125 113.753906-118.578125-113.753906c.347656-16.253906-5.929687-32.171875-17.550781-43.792969l-17.402344-17.402344c-23.40625-23.402343-61.484375-23.402343-84.886719 0-11.339843 11.335938-17.582031 26.410157-17.582031 42.441407 0 16.035156 6.242188 31.105468 17.582031 42.445312l17.402344 17.402344c11.625 11.621094 27.535156 17.890625 43.792969 17.550781l112.464844 117.234375-175.304688 168.171875c-10.128906 9.71875-15.789062 22.800781-15.93359375 36.839844-.14843725 14.035156 5.23828175 27.234375 15.16796875 37.160156 9.796875 9.796875 22.777344 15.171875 36.605469 15.171875.1875 0 .371094 0 .558594-.003906 14.035156-.144532 27.121093-5.804688 36.839843-15.9375l166.824219-173.898438 166.828125 173.898438c9.71875 10.132812 22.800781 15.792968 36.839844 15.9375.183593.003906.367187.003906.554687.003906 13.828125 0 26.8125-5.375 36.605469-15.171875 9.929687-9.925781 15.316406-23.125 15.167969-37.160156-.144532-14.039063-5.804688-27.121094-15.933594-36.839844zm-230.742187-148.855469-7.769531 1.253907c-9.515625 1.535156-19.253906-1.601563-26.046875-8.394532l-17.40625-17.40625c-5.671875-5.667968-8.792969-13.210937-8.792969-21.230468 0-8.019532 3.121094-15.558594 8.792969-21.230469 5.671875-5.667969 13.210937-8.792969 21.230469-8.792969 8.019531 0 15.5625 3.125 21.230468 8.792969l17.402344 17.40625c6.792969 6.792969 9.933594 16.53125 8.398438 26.050781l-1.253907 7.765625 128.53125 123.304687-21.441406 20.566407zm-22.492187 369.492188c-4.089844 4.261719-9.59375 6.644531-15.5 6.707031-5.914063.027344-11.460938-2.207031-15.640626-6.382812-4.179687-4.179688-6.445312-9.730469-6.382812-15.640626.0625-5.90625 2.445312-11.414062 6.707031-15.503906l369.492188-354.457031-1.253907-7.765625c-1.535156-9.519531 1.601563-19.257812 8.394532-26.050781l17.40625-17.40625c5.851562-5.851563 13.539062-8.777344 21.230468-8.777344 7.6875 0 15.375 2.925781 21.226563 8.777344 11.707031 11.707031 11.707031 30.753906 0 42.460937l-17.402344 17.40625c-6.792969 6.792969-16.535156 9.929688-26.050781 8.394532l-7.765625-1.253907zm408.09375.324219c-4.179688 4.175781-9.753907 6.425781-15.640626 6.382812-5.90625-.0625-11.414062-2.445312-15.5-6.707031l-167.691406-174.800781 23.203125-24.1875 175.304688 168.171874c4.261719 4.089844 6.644531 9.59375 6.703125 15.5.0625 5.910157-2.203125 11.460938-6.378906 15.640626zm0 0" fill="#FFDA44"/></svg>
